<svg xmlns="http://www.w3.org/2000/svg" viewBox="0 0 96 96"><defs><style>.cls-1{fill:#212F3C}</style></defs><title>Virtual_Classroom_icon</title><g id="icon"><path class="cls-1" d="M36.0443 51.3556A10.2083 10.2083.0 1 0 25.8359 41.1473 10.22 10.22.0 0 0 36.0443 51.3556z"/><path class="cls-1" d="M72.71 45.3952a1.6176 1.6176.0 0 0-2.2882.0l-9.2366 9.2366c-.2355-.0178-.4543-.0291-.6176-.03-6.2608-.0433-21.7916-.13-30.7823.0047A8.5929 8.5929.0 0 0 23.47 56.9912c-2.6512 2.748-2.5928 7.0436-2.5918 7.0869l6e-4.0433V75.309H51.7708V64.7143l1.7584-.0212c3.7167-.0446 7.99-.129 8.5881-.1975a5.0712 5.0712.0 0 0 3.9132-4.9416 4.7065 4.7065.0 0 0-1.6318-3.5595L72.71 47.6833a1.6175 1.6175.0 0 0 0-2.2881z"/><path class="cls-1" d="M79.9874 73.157H56.173V68.7041H79.9874a.56.56.0 0 0 .56-.56V28.2017a.56.56.0 0 0-.56-.5595H16.1a.56.56.0 0 0-.5595.5595V68.1443a.8314.8314.0 0 0 .1441.55h0a.3323.3323.0 0 0 .0919.01V73.157a4.7521 4.7521.0 0 1-4.6888-5.0127V28.2017A5.0179 5.0179.0 0 1 16.1 23.1893H79.9874A5.0182 5.0182.0 0 1 85 28.2017V68.1443A5.0184 5.0184.0 0 1 79.9874 73.157z"/></g></svg>